<?xml version="1.0" encoding="utf-8"?>
<!-- Generator: Adobe Illustrator 22.1.0, SVG Export Plug-In . SVG Version: 6.00 Build 0)  -->
<svg version="1.1" id="Layer_1" xmlns="http://www.w3.org/2000/svg" xmlns:xlink="http://www.w3.org/1999/xlink" x="0px" y="0px"
	 viewBox="0 0 273.7 70.9" style="enable-background:new 0 0 273.7 70.9;" xml:space="preserve">
<style type="text/css">
	.st0{fill:#FFFFFF;}
</style>
<rect x="141.4" y="14.2" class="st0" width="1.5" height="42.6"/>
<g>
	<g>
		<g>
			<path class="st0" d="M62.2,42.2h-4V14.3h4V42.2z"/>
			<path class="st0" d="M97.6,28.2c0,8-6.1,14.4-15.3,14.4c-8.8,0-14.7-6.5-14.7-14.2C67.6,21,73,14,82.6,14
				C91.9,14,97.6,20.7,97.6,28.2z M71.8,28.4c0,6.3,5,10.5,10.8,10.5c3,0,6.2-1.2,8.1-3.3c1.8-1.9,2.8-5,2.8-7.4
				c0-4.6-3.5-10.5-10.8-10.5C74.9,17.7,71.8,23.7,71.8,28.4z"/>
			<path class="st0" d="M129,42.2h-4V20.5l-8.6,10.8h-0.7L107,20.5v21.7h-4V14.3h3.8l9.3,11.5l9.2-11.5h3.7V42.2z"/>
		</g>
	</g>
	<g>
		<g>
			<path class="st0" d="M23.4,52.8c0,0.9,0,2.2-1.1,3.1c-0.8,0.7-1.9,1-3,1c-1.3,0-2.8-0.4-3.6-1.6c-0.5-0.8-0.5-1.9-0.5-2.5v-5.3
				h1.4v5.3c0,1.2,0.1,1.7,0.6,2.2c0.4,0.4,1,0.8,2.1,0.8c1.5,0,2.2-0.8,2.4-1.2c0.2-0.3,0.3-0.8,0.3-1.7v-5.3h1.3V52.8z"/>
			<path class="st0" d="M35.8,56.8h-1.2l-6.3-7.2v7.2H27v-9.3h1.1l6.4,7.2v-7.2h1.3V56.8z"/>
			<path class="st0" d="M53.3,56.8h-1.4v-7.2L49,53.2h-0.3l-2.9-3.6v7.2h-1.4v-9.3h1.3l3.2,3.8l3.1-3.8h1.3V56.8z"/>
			<path class="st0" d="M58.5,56.8h-1.4v-9.3h1.4V56.8z"/>
			<path class="st0" d="M70.1,56.2c-0.7,0.3-1.9,0.8-3.5,0.8c-3.7,0-5.2-2.6-5.2-4.7c0-2.5,1.9-4.9,5.1-4.9c1.3,0,2.3,0.4,3.3,0.8
				v1.4c-1.6-0.9-2.8-1-3.4-1c-1.9,0-3.7,1.4-3.7,3.6c0,2.1,1.5,3.6,3.8,3.6c0.7,0,1.2-0.1,2.1-0.4v-1.9h-1.8v-1.2h3.2V56.2z"/>
			<path class="st0" d="M76.1,47.5c0.4,0,1,0,1.6,0.3c1,0.4,1.5,1.3,1.5,2.3c0,1.1-0.6,1.9-1.6,2.3c0.9,0.6,1.4,1.4,2.1,2.6
				c0.4,0.6,0.6,1,1.3,1.9h-1.6c-0.3-0.5-1.6-2.5-1.9-2.9c-0.9-1.2-1.4-1.2-2-1.2h-0.4v4h-1.3v-9.3H76.1z M75.1,48.7v2.9h0.5
				c0.2,0,0.9,0,1.3-0.1c0.6-0.2,0.9-0.8,0.9-1.3c0-0.5-0.3-1-0.7-1.2c-0.3-0.2-0.8-0.2-1.6-0.2H75.1z"/>
			<path class="st0" d="M91.8,56.8h-1.4l-1.3-2.7h-4l-1.2,2.7h-1.4l4.1-9.4h1L91.8,56.8z M88.6,52.9L87,49.5l-1.4,3.4H88.6z"/>
			<path class="st0" d="M100.3,48.7H97v8.1h-1.4v-8.1h-3.3v-1.2h7.9V48.7z"/>
			<path class="st0" d="M104.7,56.8h-1.4v-9.3h1.4V56.8z"/>
			<path class="st0" d="M117.7,52.2c0,2.7-2.1,4.8-5.2,4.8c-3,0-5-2.2-5-4.7c0-2.5,1.8-4.8,5.1-4.8
				C115.8,47.4,117.7,49.7,117.7,52.2z M108.9,52.2c0,2.1,1.7,3.5,3.7,3.5c1,0,2.1-0.4,2.8-1.1c0.6-0.6,0.9-1.6,0.9-2.5
				c0-1.5-1.2-3.5-3.7-3.5C110,48.7,108.9,50.6,108.9,52.2z"/>
			<path class="st0" d="M129.1,56.8H128l-6.3-7.2v7.2h-1.3v-9.3h1.1l6.4,7.2v-7.2h1.3V56.8z"/>
		</g>
	</g>
	<g>
		<path class="st0" d="M29.6,25.6c0.3,0,0.6-0.3,0.6-0.6c0-0.3-0.3-0.6-0.6-0.6c-0.3,0-0.6,0.3-0.6,0.6C29,25.4,29.3,25.6,29.6,25.6
			z"/>
		<path class="st0" d="M36.1,26c0-0.1-0.1-0.2-0.2-0.2h0h-0.4h-0.3h-0.3h-0.3h-0.4h0c-0.1,0-0.2,0.1-0.2,0.1l-1.1,2.6h-1.1L30.7,26
			c0-0.1-0.1-0.1-0.2-0.1h-0.9h-0.9c-0.1,0-0.2,0.1-0.2,0.1l-1.1,2.7c0,0.1,0,0.2,0.1,0.3c0,0,0.1,0,0.1,0c0.1,0,0.2-0.1,0.2-0.1
			l1-2.4l0.1,2.3l-0.4,2.9c0,0.1,0,0.2,0.2,0.3c0,0,0.1,0,0.1,0c0.1,0,0.2-0.1,0.2-0.2l0.4-2.8h0.5l0.4,2.8c0,0.1,0.1,0.2,0.2,0.2
			c0,0,0.1,0,0.1,0c0.1,0,0.2-0.2,0.2-0.3l-0.4-2.9l0.1-2.3l1,2.4c0,0,0,0,0,0c0,0,0,0,0,0c0,0,0,0,0,0c0,0,0,0,0,0c0,0,0,0,0,0
			c0,0,0,0,0,0c0,0,0,0,0,0c0,0,0,0,0,0c0,0,0,0,0,0c0,0,0,0,0,0c0,0,0,0,0,0c0,0,0,0,0,0c0,0,0,0,0,0h0.2l-0.3,1.7
			c0,0.1,0,0.2,0.1,0.3c0,0.1,0.1,0.1,0.2,0.1v0.7c0,0.1,0.1,0.2,0.2,0.2c0.1,0,0.2-0.1,0.2-0.2v-0.7l0,0c0,0,0,0,0,0l0.1,0l0.1,0
			c0,0,0,0,0,0c0,0,0,0,0,0l0,0v0.7c0,0.1,0.1,0.2,0.2,0.2c0.1,0,0.2-0.1,0.2-0.2v-0.7c0.1,0,0.1-0.1,0.2-0.1
			c0.1-0.1,0.1-0.2,0.1-0.3l-0.3-1.7H33l0,0c0,0,0,0,0,0c0,0,0,0,0,0c0,0,0,0,0,0c0,0,0,0,0,0c0,0,0,0,0,0c0,0,0,0,0,0c0,0,0,0,0,0
			c0,0,0,0,0,0c0,0,0,0,0,0c0,0,0,0,0,0c0,0,0,0,0,0c0,0,0,0,0,0l1-2.5l0.2,1c0,0.2,0,0.3,0,0.5l-1,4.1h1.3h0.3h1.3l-1-4.1
			c0-0.2,0-0.3,0-0.5l0.2-1l0.8,2c0,0.1,0.1,0.2,0.2,0.2c0,0,0.1,0,0.1,0c0.1-0.1,0.2-0.2,0.1-0.3L36.1,26z"/>
		<path class="st0" d="M35,25.6c0.3,0,0.6-0.3,0.6-0.6c0-0.3-0.3-0.6-0.6-0.6c-0.3,0-0.6,0.3-0.6,0.6C34.5,25.4,34.7,25.6,35,25.6z"
			/>
		<circle class="st0" cx="32.3" cy="28.1" r="0.4"/>
		<path class="st0" d="M44.1,14.4h-2.9c0.8,0.7,1.8,1.9,1.8,1.9c2.8,3.2,4.5,7.4,4.5,11.3c0,0,0,0.1,0,0.1h-4.7
			c-0.7-7.4-6.6-13.3-13.9-13.3C21.2,14.4,15,21,15,29.2c0,4.4,2,9.4,5.3,13.1h2.9c-0.8-0.7-1.8-1.9-1.8-1.9
			c-2.8-3.2-4.5-7.4-4.5-11.3c0,0,0-0.1,0-0.1h4.7c0.7,7.4,6.6,13.3,13.9,13.3c7.7,0,13.9-6.6,13.9-14.8
			C49.4,23,47.4,18.1,44.1,14.4z M40.8,27.7h-2.4c0,0,0,0,0-0.1c0-1.4-0.4-2.8-1.1-4.1h2.4C40.3,24.9,40.7,26.3,40.8,27.7z
			 M39.3,22.7h-2.5c-0.9-1.4-2.2-2.5-3.5-3.3c0.6-0.4,1.2-0.8,1.8-1.3C36.8,19.2,38.3,20.8,39.3,22.7z M29.5,16.3
			c1.8,0.1,3.4,0.6,4.9,1.4c-1.3,1.2-3,2-4.9,2.1V16.3z M29.5,20.5c1-0.1,2-0.3,2.9-0.7c1.3,0.6,2.6,1.6,3.5,2.8h-6.4V20.5z
			 M28.6,16.3v3.5c-2-0.1-3.8-0.9-5.1-2.1C25,16.9,26.8,16.4,28.6,16.3z M28.6,20.5v2.2h-6.5c0.9-1.3,2.2-2.3,3.5-2.8
			C26.5,20.3,27.5,20.5,28.6,20.5z M22.8,18.1c0.5,0.5,1.1,1,1.8,1.4c-1.3,0.7-2.6,1.9-3.5,3.3h-2.6C19.5,20.8,21,19.2,22.8,18.1z
			 M17,28c0.1-1.6,0.5-3.1,1.1-4.4h2.5c-0.7,1.2-1.1,2.6-1.1,4.1c0,0.1,0,0.3,0,0.4H17z M23.6,28.9H26c0,0,0,0,0,0.1
			c0,1.4,0.4,2.8,1.1,4.1h-2.4C24.1,31.8,23.7,30.4,23.6,28.9z M25.1,33.9h2.5c0.9,1.4,2.2,2.5,3.5,3.3c-0.6,0.4-1.2,0.8-1.8,1.3
			C27.6,37.4,26.1,35.8,25.1,33.9z M34.9,40.3c-1.8-0.1-3.4-0.6-4.9-1.4c1.3-1.2,3-2,4.9-2.1V40.3z M34.9,36.1c-1,0.1-2,0.3-2.9,0.7
			c-1.3-0.6-2.6-1.6-3.5-2.8h6.4V36.1z M27.9,33c-0.7-1.2-1.2-2.6-1.2-4.1c0,0,0,0,0-0.1h0l0-0.9h-6.5c0-0.1,0-0.3,0-0.4
			c0-1.5,0.4-2.9,1.2-4.1h15c0.7,1.2,1.2,2.6,1.2,4.1c0,0,0,0,0,0.1h0l0,0.9h6.5c0,0.1,0,0.3,0,0.4c0,1.5-0.4,2.9-1.2,4.1H27.9z
			 M42.3,33.9c-0.9,1.3-2.2,2.3-3.5,2.8c-0.9-0.4-1.9-0.6-3-0.7v-2.2H42.3z M35.8,40.3v-3.5c2,0.1,3.8,0.9,5.1,2.1
			C39.3,39.8,37.6,40.2,35.8,40.3z M41.5,38.5c-0.5-0.5-1.1-1-1.8-1.4c1.3-0.7,2.6-1.9,3.5-3.3h2.6C44.8,35.8,43.3,37.4,41.5,38.5z
			 M46.3,33h-2.5c0.7-1.2,1.1-2.6,1.1-4.1c0-0.1,0-0.3,0-0.4h2.6C47.3,30.2,46.9,31.7,46.3,33z"/>
	</g>
</g>
<g>
	<g>
		<path class="st0" d="M161.1,23.8h-4.3v3.1h4.2v1.3h-4.2v3.2h4.5v1.3h-5.9V22.5h5.8V23.8z"/>
		<path class="st0" d="M167,32.8h-0.3l-4.4-10.3h1.5l3.1,7.2l3.1-7.2h1.5L167,32.8z"/>
		<path class="st0" d="M180.5,32.7H179l-1.4-3h-4.3l-1.3,3h-1.5l4.4-10.3h1L180.5,32.7z M177,28.4l-1.7-3.7l-1.5,3.7H177z"/>
		<path class="st0" d="M183.1,31.4h4.6v1.3h-6.1V22.5h1.5V31.4z"/>
		<path class="st0" d="M197.4,28.3c0,1,0,2.4-1.2,3.4c-0.9,0.8-2.1,1.1-3.2,1.1c-1.4,0-3-0.5-3.8-1.8c-0.6-0.9-0.6-2.1-0.6-2.8v-5.8
			h1.5v5.8c0,1.3,0.1,1.9,0.6,2.4c0.4,0.5,1.1,0.9,2.3,0.9c1.7,0,2.4-0.9,2.6-1.4c0.2-0.4,0.3-0.9,0.3-1.9v-5.8h1.5V28.3z"/>
		<path class="st0" d="M208,32.7h-1.5l-1.4-3h-4.3l-1.3,3H198l4.4-10.3h1L208,32.7z M204.6,28.4l-1.7-3.7l-1.5,3.7H204.6z"/>
		<path class="st0" d="M215.6,23.8H212v8.9h-1.5v-8.9H207v-1.3h8.5V23.8z"/>
		<path class="st0" d="M218.4,32.7h-1.5V22.5h1.5V32.7z"/>
		<path class="st0" d="M231.3,27.6c0,2.9-2.2,5.3-5.6,5.3c-3.2,0-5.4-2.4-5.4-5.2c0-2.7,2-5.3,5.5-5.3
			C229.2,22.3,231.3,24.8,231.3,27.6z M221.8,27.6c0,2.3,1.8,3.9,4,3.9c1.1,0,2.3-0.4,3-1.2c0.6-0.7,1-1.8,1-2.7
			c0-1.7-1.3-3.8-4-3.8C223,23.7,221.8,25.9,221.8,27.6z"/>
		<path class="st0" d="M242.7,32.7h-1.3l-6.8-7.9v7.9h-1.4V22.5h1.2l6.9,7.9v-7.9h1.4V32.7z"/>
		<path class="st0" d="M257.2,32.7h-1.9l-1.2-1.4c-0.6,0.5-0.7,0.6-0.9,0.7c-0.6,0.4-1.5,0.8-2.4,0.8c-1.3,0-2.5-0.9-2.5-2.4
			c0-1,0.6-2,2.4-3c-0.4-0.4-1.2-1.3-1.2-2.4c0-1,0.7-2.4,2.6-2.4c1.8,0,2.5,1.3,2.5,2.3c0,1.4-1.3,2.2-1.9,2.7l1.4,1.6
			c0.2-0.2,0.6-0.7,1.1-1.6h1.5c-0.5,1.3-1.3,2.2-1.7,2.7L257.2,32.7z M253.3,30.3l-1.7-1.9l-0.6,0.5c-0.6,0.4-1.1,0.9-1.1,1.6
			c0,0.5,0.5,1.1,1.3,1.1c0.6,0,1.4-0.4,1.9-0.9L253.3,30.3z M253.3,25c0-0.6-0.5-1-1.2-1c-0.6,0-1.1,0.4-1.1,1
			c0,0.8,0.8,1.6,0.9,1.7C252.9,26.1,253.3,25.5,253.3,25z"/>
		<path class="st0" d="M164.8,48.7h-1.5v-8l-3.1,4h-0.3l-3.2-4v8h-1.5V38.5h1.4l3.4,4.2l3.4-4.2h1.4V48.7z"/>
		<path class="st0" d="M177.7,43.6c0,2.9-2.2,5.3-5.6,5.3c-3.2,0-5.4-2.4-5.4-5.2c0-2.7,2-5.3,5.5-5.3
			C175.6,38.3,177.7,40.8,177.7,43.6z M168.2,43.6c0,2.3,1.8,3.9,4,3.9c1.1,0,2.3-0.4,3-1.2c0.6-0.7,1-1.8,1-2.7
			c0-1.7-1.3-3.8-4-3.8C169.4,39.7,168.2,41.9,168.2,43.6z"/>
		<path class="st0" d="M189.1,48.7h-1.3l-6.8-7.9v7.9h-1.4V38.5h1.2l6.9,7.9v-7.9h1.4V48.7z"/>
		<path class="st0" d="M193,48.7h-1.5V38.5h1.5V48.7z"/>
		<path class="st0" d="M202.8,39.8h-3.6v8.9h-1.5v-8.9h-3.5v-1.3h8.5V39.8z"/>
		<path class="st0" d="M214.2,43.6c0,2.9-2.2,5.3-5.6,5.3c-3.2,0-5.4-2.4-5.4-5.2c0-2.7,2-5.3,5.5-5.3
			C212.1,38.3,214.2,40.8,214.2,43.6z M204.7,43.6c0,2.3,1.8,3.9,4,3.9c1.1,0,2.3-0.4,3-1.2c0.6-0.7,1-1.8,1-2.7
			c0-1.7-1.3-3.8-4-3.8C205.9,39.7,204.7,41.9,204.7,43.6z"/>
		<path class="st0" d="M218.7,38.5c0.5,0,1.1,0,1.8,0.3c1.1,0.5,1.6,1.5,1.6,2.5c0,1.2-0.6,2.1-1.7,2.5c0.9,0.6,1.5,1.6,2.3,2.8
			c0.4,0.7,0.7,1,1.4,2h-1.7c-0.3-0.5-1.8-2.7-2.1-3.2c-1-1.3-1.5-1.3-2.2-1.3h-0.4v4.5h-1.5V38.5H218.7z M217.6,39.7V43h0.6
			c0.2,0,1,0,1.4-0.2c0.7-0.3,1-0.9,1-1.5c0-0.6-0.3-1.1-0.8-1.4c-0.4-0.2-0.9-0.2-1.7-0.2H217.6z"/>
		<path class="st0" d="M226.7,48.7h-1.5V38.5h1.5V48.7z"/>
		<path class="st0" d="M238.6,48.7h-1.3l-6.8-7.9v7.9h-1.4V38.5h1.2l6.9,7.9v-7.9h1.4V48.7z"/>
		<path class="st0" d="M249.8,48c-0.8,0.3-2,0.8-3.8,0.8c-4,0-5.6-2.8-5.6-5.2c0-2.7,2-5.3,5.5-5.3c1.4,0,2.5,0.4,3.6,0.9v1.5
			c-1.7-1-3.1-1.1-3.6-1.1c-2,0-4,1.5-4,3.9c0,2.3,1.6,4,4.1,4c0.8,0,1.3-0.1,2.2-0.5V45h-2v-1.3h3.4V48z"/>
	</g>
</g>
</svg>
